<?xml version="1.0" encoding="utf-8" ?><svg xmlns="http://www.w3.org/2000/svg" xmlns:xlink="http://www.w3.org/1999/xlink" width="1024" height="1024" viewBox="0 0 1024 1024"><path fill="#FB6A35" d="M642.197 157.886C650.569 154.832 670.311 150.611 679.415 148.435C702.555 143.017 725.655 137.43 748.713 131.675L997.351 70.9319C996.305 80.731 993.425 95.224 991.726 105.105L980.68 168.881L948.486 355.441C945.449 373.113 942.322 390.771 939.107 408.412C938.119 414.055 935.044 430.041 935.314 434.783C907.003 409.445 879.049 381.514 850.801 355.625C845.914 361.418 831.734 374.599 825.837 380.454L772.087 433.688L643.695 560.443L589.797 613.747C579.52 623.909 567.682 635.003 557.893 645.456C556.928 668.237 557.671 697.424 557.614 720.556L557.721 882.715L557.786 940.298C557.788 950.323 558.194 960.509 557.303 970.514C556.477 979.786 546.97 989.418 537.618 990.318C528.459 991.199 518.582 990.837 509.327 990.777L465.671 990.662L403.91 990.697C392.313 990.757 380.779 990.997 369.139 990.78C356.46 990.543 344.844 983.327 343.35 969.885C342.61 963.234 342.919 956.394 342.969 949.693L343.153 917.47L343.036 795.845C339.794 792.396 333.797 788.198 330.038 784.942C318.864 775.262 302.348 764.148 292.262 753.945L124.972 906.33L57.6377 967.754C51.1342 973.589 44.8912 979.699 38.3632 985.485C34.4286 988.972 27.5991 992.716 22.5743 989.346C20.8359 988.18 17.7349 983.887 17.5836 981.758C17.4639 977.816 20.4119 972.229 22.6341 968.984C31.5465 955.969 40.9257 942.777 49.9117 929.853L114.482 837.618L220.497 686.061C242.341 654.59 264.363 623.244 286.564 592.025C297.62 600.702 313.081 616.529 323.522 626.638C340.132 642.836 357.02 658.747 374.178 674.364C383.65 663.078 393.175 650.646 402.432 639.113L443.602 588.489L644.364 341.863C672.033 307.977 700.206 272.466 728.211 239.039C720.549 231.125 710.093 221.856 701.923 214.198C681.851 195.602 661.942 176.83 642.197 157.886Z"/><path fill="#203B59" d="M557.893 645.456C556.928 668.237 557.671 697.424 557.614 720.556L557.721 882.715L557.786 940.298C557.788 950.323 558.194 960.509 557.303 970.514C556.477 979.786 546.97 989.418 537.618 990.318C528.459 991.199 518.582 990.837 509.327 990.777L465.671 990.662L403.91 990.697C392.313 990.757 380.779 990.997 369.139 990.78C356.46 990.543 344.844 983.327 343.35 969.885C342.61 963.234 342.919 956.394 342.969 949.693L343.153 917.47L343.036 795.845C345.645 797.572 351.663 802.725 354.354 804.921L377.155 823.671C418.07 781.573 462.908 739.24 504.84 697.664L542.368 660.474C545.304 657.561 555.388 647.044 557.893 645.456Z"/><path fill="#203B59" d="M124.222 224.753C156.943 224.618 189.665 224.687 222.385 224.962L445.746 225L578.896 225.009L619.141 224.965C629.53 224.886 638.399 224.008 648.911 225.896C659.289 227.76 663.222 233.413 664.954 243.795C665.735 248.479 664.639 251.385 661.922 255.261C656.163 263.477 649.416 271.395 643.079 279.2L607.193 323.266C565.851 374.185 523.144 425.901 482.434 477.159L412.453 563.048C407.116 569.49 401.867 576.003 396.707 582.587C386.893 595.061 374.376 615.536 356.665 602.326C351.674 598.764 345.132 591.735 344.148 585.475C342.227 573.251 343.153 558.618 343.15 546.197L343.117 465.577C343.182 449.17 343.562 432.866 342.588 416.429C341.461 397.408 324.239 399.322 310.046 399.28C301.883 399.256 293.65 399.397 285.471 399.378L153.525 399.473C134.637 399.494 114.318 400.111 95.5367 399.362C82.0363 398.823 73.2978 386.249 73.1852 373.418C73.1112 364.989 73.0588 355.895 73.07 347.082L73.1107 299.627L73.043 268.922C72.8082 221.864 82.0052 225.707 124.222 224.753Z"/></svg>