<svg xmlns="http://www.w3.org/2000/svg" width="1831" height="560" viewBox="0 0 1831 560"><path fill="#f4692e" d="M393.842 60.75q65.304-16.275 130.819-31.679c21.795-5.115 51.149-12.624 72.928-16.256-13.597 69.15-23.928 139.503-36.628 208.844-16.164-14.869-32.294-30.305-48.26-45.41a14820 14820 0 0 1-171.185 169.496l-.018 126.497c.001 20.809.374 41.749-.333 62.492-.468 13.701-15.066 13.367-25.261 13.073-29.054-.838-58.68 1.004-87.621-.662-5.974-.344-10.509-8.028-10.426-13.398-.959-11.635-.608-23.397-.59-35.077l.13-63.942c-7.647-8.23-21.428-19.87-30.047-27.54-32.897 31.186-66.637 61.024-100.083 91.577a1900 1900 0 0 0-26.77 24.699c-6.542 6.239-22.821 24.255-31.787 24.114-2.317-1.284-1.64-.533-2.659-3.026.61-9.67 21.872-37.703 28.445-46.801 43.516-60.24 84.738-122.621 128.475-182.644 16.62 13.758 34.569 33.211 52.03 48.079 20.927-24.198 43.461-53.275 63.922-78.329l144.194-176.635c-15.927-15.908-33.08-31.592-49.275-47.473"/><path fill="#123458" d="m341.516 345.745-.018 126.497c.001 20.809.374 41.749-.333 62.492-.468 13.701-15.066 13.367-25.261 13.073-29.054-.838-58.68 1.004-87.621-.662-5.974-.344-10.509-8.028-10.426-13.398-.959-11.635-.608-23.397-.59-35.077l.13-63.942c5.643 3.94 12.927 11.072 18.173 15.977z"/><path fill="#123458" d="M70.624 99.56c16.658-.76 37.279-.22 54.259-.21l99.434.059 104.957-.031c18.962-.02 37.925-.11 56.885.107 7.225.083 15.17 2.142 17.437 10.004-.089 10.591-31.269 45.43-39.193 55.109l-57.561 70.583c-11.989 14.712-61.629 79.873-73.031 86.136-2.373 1.304-4.262 1.654-6.85.839-4.63-1.458-7.31-5.318-8.653-9.782-2.215-7.365-1.194-16.487-1.161-24.113.064-14.862 2.853-72.448-2.4-81.427-1.909-3.261-7.568-4.552-11.039-5.064-10.3-1.518-22.045-.263-32.526-.197l-68.461.378c-17.06.078-43.795 4.655-43.601-18.431-.389-19.323.648-38.723.106-58.043-.369-13.151-1.544-19.198 11.398-25.916"/><path fill="#123458" d="M1720.15 172.195c46.19-5.517 88.07 27.589 93.39 73.833s-27.94 88.006-74.18 93.135c-45.97 5.099-87.4-27.943-92.69-73.913s27.56-87.57 73.48-93.055m13.92 123.838c43.76-9.567 38.76-82.779-7.48-81.275-44.63 10.671-40.78 81.359 7.48 81.275"/><path fill="#123458" d="M1004.84 172.945c23.28-3.364 51.49 2.771 67.87 20.297 20.17 21.582 21.99 47.199 21.47 74.911-35.92.487-72.93.022-108.935.025q.457 2.18.963 4.351c6.618 28.258 39.152 37.555 55.512 10.124l48.78.049.98 1.747c-.55 6.477-6.31 17.51-10.16 22.947a73.43 73.43 0 0 1-48.49 30.478c-82.203 14.118-121.063-75.704-78.947-137.037 11.491-16.733 31.547-24.813 50.957-27.892m18.17 66.388 23.7-.013c-5.83-19.16-12.83-29.974-35.07-28.044-17.514 5.233-20.975 10.786-26.201 27.959z"/><path fill="#123458" d="m1503.16 174.682 127.47-.059.03 39.278c-22.5 27.278-46.87 55.261-69.89 82.22l70.8.032-.05 40.381-128.94.06.05-39.659c20.72-25.807 47.31-57.029 69.53-81.558l-69.05.029z"/><path fill="#123458" d="M1356.3 174.758c40.51-1.074 86.27-.109 127.16-.126l-.04 39.264-69.57 82.264 70.57-.012c.14 13.768.25 26.592-.34 40.349l-128.64.058-.01-39.797c22.55-24.19 47.93-55.849 69.55-81.537-22.66-.197-45.89.104-68.59.175z"/><path fill="#123458" d="m656.688 131.528 154.14-.019.037 41.132-52.207-.007q-.548 56.479.093 112.957l.053 51.001-49.433.086.016-164.04c-17.299-.247-35.202.004-52.55.016z"/><path fill="#123458" d="m1100 174.685 49.34-.097 32.71 110.765a5737 5737 0 0 0 32.7-110.571c15.04-.583 33.11-.139 48.4-.169l-13.24 40.465a3548 3548 0 0 0-40.21 121.485l-55.05-.007a4422 4422 0 0 1-32.42-95.746c-7.34-21.97-15.48-44.025-22.23-66.125"/><path fill="#123458" d="m916.827 172.841 9.342-.328-.026 52.044a542 542 0 0 0-8.455-.019c-36.582.225-39.748 16.163-39.561 49.202.118 20.827.387 41.975.616 62.815l-48.98.08-.035-14.143-.085-147.821 48.094-.054.067 26.486a93 93 0 0 1 3.296-5.556c9.432-14.697 19.329-19.111 35.727-22.706"/><path fill="#123458" d="M1282.13 174.66q24.105-.165 48.21.141l.13 161.743-48.33-.004z"/><path fill="#f4692e" d="M1120.18 417.968c56.01-5.333 68.06 81.225 9.07 91.598-54.83 5.058-68.91-79.957-9.07-91.598m9.59 74.662c8.78-4.017 14.4-8.619 17.87-18.065a33.76 33.76 0 0 0-1.11-25.494c-5.29-11.347-15.58-16.094-27.72-14.188-2.46 1.075-6.27 2.628-8.29 4.328-19.74 16.549-10.43 59.002 19.25 53.419"/><path fill="#f4692e" d="M792.588 419.102c24.591-2.611 46.655 15.184 49.326 39.783s-15.06 46.719-39.638 49.452c-24.663 2.743-46.866-15.074-49.545-39.759-2.68-24.684 15.181-46.855 39.857-49.476m7.622 74.125c35.309-12.558 23.851-60.677-4.683-59.304-34.67 9.697-29.109 58.905 4.683 59.304"/><path fill="#f4692e" d="m1215.99 417.993.77-.054c36.68-2.501 43.66 21.895 45.56 52.702-21.74.127-43.47.1-65.21-.082 9.82 45.922 39.51 11.467 47.17 10.586l16-.001c-5.92 14.071-13.63 24.897-29.54 27.993a45.38 45.38 0 0 1-33.9-6.903 40.92 40.92 0 0 1-17.15-26.631c-5.38-28.906 6.6-52.113 36.3-57.61m-19.21 37.264 28.51.024 18.36.066c-5.05-16.593-9.38-21.839-27.96-21.236-12.06 4.749-14.6 9.098-18.91 21.146"/><path fill="#f4692e" d="M696.153 393.803c24.777-1.443 38.564 5.87 43.944 31.422l-19.778-.154c-6.527-15.624-22.065-21.279-35.818-7.993-1.713 1.655-2.577 6.488-1.86 8.793 5.768 18.548 34.367 16.321 47.796 27.62 4.886 3.584 9.975 8.726 10.608 15.319 2.381 24.792-11.896 37.107-33.701 40.774-26.257 1.883-37.972-8.892-45.126-32.881l20.77-.133c1.287 4.615 3.501 11.012 7.858 13.434 8.4 4.671 22.032 4.884 27.763-3.707a16.1 16.1 0 0 0 2.35-12.246c-3.23-16.068-33.184-14.678-45.062-24.219-9.845-6.746-13.28-14.658-11.809-26.679 2.407-19.678 13.771-25.92 32.065-29.35"/><path fill="#f4692e" d="M1027.2 417.959c23.74-2.574 36.45 9.205 44.02 30.463l-19 .065c-5.92-9.814-11.17-16.083-23.59-14.257-31.859 4.684-23.09 68.918 9.79 58.199 5.72-1.863 10.54-8.567 13.59-13.342l18.92.046a71 71 0 0 1-4.74 11.499c-6.46 12.207-16.08 15.459-28.26 19.141.1.394 1.29 3.786 1.45 3.874 6.01 3.298 21.13 8.858 19.76 17.665-3.44 22.117-28.06 18.516-43 17.333l-.02-12.82c6.89.52 22.69 1.619 26.76-5.379l-.6-1.645c-4.91-3.157-10.34-2.87-16.01-2.914l-.01-15.709c-49.814-14.094-48.302-82.427.94-92.219"/><path fill="#f4692e" d="m955.704 419.134 18.462.188.244 23.816.096 65.113c-4.497.356-12.027.908-16.159-.991-2.318-1.065-2.35-3.054-3.158-5.648-7.038.538-12.615 7.955-23.09 8.235-45.219 1.206-35.533-59.143-35.386-90.585l18.309.014c.361 17.919-6.983 66.761 13.841 72.722 36.657 10.493 27.31-52.462 26.841-72.864"/><path fill="#f4692e" d="M1302.71 418.005c14.67-1.418 30.05 2.884 36.39 17.554 1.56 3.591 2.57 6.258 1.78 10.282-3.13 1.176-13.52.767-17.43.761-4.27-9.745-9.47-13.469-20.55-12.786-4.31.265-10.33 3.79-8.99 8.794 4.92 16.306 27.65 12.449 39.94 21.747 10.28 7.781 11.92 22.134 4.51 32.689-6.61 9.431-15.72 11.069-26.49 12.811-23.68.448-32.29-8.069-40.01-29.395l18.82-.008c1.75 3.255 2.91 5.784 5.94 8.418 6.88 5.996 29.61 8.627 27.16-5.916-1.26-7.522-12.55-11.396-19.28-12.726-19.93-3.942-38.96-17.183-25.77-38.99 5.21-8.476 14.17-11.453 23.98-13.235"/><path fill="#123458" d="M1305.37 105.021c7.8.533 13.05.979 19.52 5.838a26.16 26.16 0 0 1 10.3 17.412 26.35 26.35 0 0 1-5.11 19.763c-5.82 7.65-12.86 9.824-21.88 10.992-35.11 2.069-46.11-48.548-2.83-54.005"/><path fill="#f4692e" d="m856.553 388.188 18.845-.012.192 120.062-19.007.008z"/><path fill="#f4692e" d="M1144.41 388.231c3.54-.037 7.37.092 10.93.142-8.74 32.232-20.68 17.15-41.93 15.931-2.23-.128-4.53 3.832-5.7 5.744l-10.82-.206c6.34-30.371 20.14-17.536 39.68-15.039 2.94.376 6.17-4.259 7.84-6.572"/></svg>