<?xml version="1.0" encoding="utf-8" ?><svg xmlns="http://www.w3.org/2000/svg" xmlns:xlink="http://www.w3.org/1999/xlink" width="1024" height="1024" viewBox="0 0 1024 1024"><path fill="#213952" d="M0 0L1024 0L1024 1024L0 1024L0 0Z"/><path fill="#F46933" d="M640.534 207.525C647.664 206.094 657.384 203.299 664.733 201.479L716.183 188.76L887.768 145.582C887.061 154.045 885.186 163.844 883.748 172.316L877.064 211.518L855.513 336.605L849.179 373.641C847.966 380.932 846.309 389.75 845.806 396.993C826.491 378.845 807.231 361.203 787.997 342.788C765.809 365.757 741.323 389.296 718.621 411.892L588.3 542.033L513.359 617.036C502.59 628.104 491.753 639.105 480.848 650.039C472.8 658.229 464.86 666.648 456.336 674.319C436.612 657.892 416.705 641.685 396.619 625.703C389.82 631.526 382.508 638.627 375.834 644.733C362.626 656.792 349.345 668.771 335.992 680.67C328.518 687.885 319.925 695.553 312.117 702.45C310.649 704.246 302.006 711.891 299.787 713.907L275.98 735.692L233.746 774.03C228.809 778.516 215.611 792.497 210.067 793.241C208.398 793.469 206.707 793.019 205.371 791.992C203.363 790.449 202.75 788.658 202.404 786.216C202.061 783.791 204.122 780.989 205.583 778.917C219.894 758.608 234.361 738.32 248.647 718.002L320.6 614.749L369.795 544.523C376.549 534.905 385.99 520.229 393.042 511.502C399.56 516.948 406.094 523.706 412.302 529.568C426.227 542.714 439.875 556.882 454.02 569.717C462.778 559.863 473.289 545.96 481.684 535.534L539.231 463.642L699.875 263.64C695.85 259.423 691.066 255.482 686.921 251.375C672.325 236.914 654.54 222.242 640.534 207.525Z"/><path fill="#E76D4E" d="M312.117 702.45C312.124 701.183 312.311 699.934 313.251 699.005C317.799 694.509 330.18 681.472 335.992 680.67C328.518 687.885 319.925 695.553 312.117 702.45Z"/><path fill="#FCFCFC" d="M256.237 253.632C274.326 252.756 299.159 253.482 317.61 253.48L436.074 253.468L574.372 253.443C597.4 253.433 620.421 253.267 643.457 253.427C650.275 253.147 656.419 258.458 657.344 265.248C658.416 273.113 647.687 284.032 642.817 290.048L619.159 318.999L539.864 417.021L487.291 481.923L468.985 504.877C465.343 509.418 457.902 519.886 453.224 520.474C433.649 522.933 430.318 504.479 431.493 489.651C432.061 482.489 431.497 473.963 431.503 467.97L431.572 408.373C431.579 401.073 433.92 379.292 423.8 377.727C413.145 376.079 399.722 376.857 388.72 376.897L298.381 376.96C285.711 376.919 272.754 377.333 260.271 376.957C241.897 376.403 242.431 358.692 242.93 345.276C243.059 341.788 242.945 337.969 242.952 334.488L243.016 298.283C243.024 288.191 241.281 271.173 245.198 261.725C246.944 257.512 251.894 254.918 256.237 253.632Z"/><path fill="#FCFCFC" d="M579.403 576.916C580.359 577.857 579.999 597.406 579.999 600.139L579.975 655.554L579.988 740.519L580.033 767.274C580.037 772.044 580.126 777.206 579.841 781.934C579.681 784.597 577.808 788.435 576.01 790.377C572.101 794.6 567.548 796.028 561.958 796.061C537.037 796.207 512.021 796.168 487.111 796.195L463.864 796.298C448.008 796.442 431.38 798.632 431.512 776.533L431.556 675.442C438.132 681.222 450.765 692.872 457.321 697.302C498.243 657.406 538.938 617.276 579.403 576.916Z"/></svg>